<svg id="svg" version="1.1" xmlns="http://www.w3.org/2000/svg" xmlns:xlink="http://www.w3.org/1999/xlink" width="400" height="169.61130742049468" viewBox="0, 0, 400,169.61130742049468"><g id="svgg"><path id="path0" d="M133.200 1.888 C 132.894 1.976,132.688 2.121,132.742 2.210 C 132.797 2.298,132.734 2.329,132.601 2.279 C 132.085 2.081,131.765 3.475,131.676 6.305 C 131.599 8.770,131.569 8.969,131.259 9.050 C 131.072 9.099,130.975 9.219,131.039 9.323 C 131.102 9.425,131.056 9.487,130.935 9.461 C 130.524 9.374,130.301 10.762,130.187 14.117 C 130.082 17.201,130.048 17.469,129.751 17.564 C 129.030 17.792,128.879 18.530,128.790 22.268 C 128.712 25.504,128.678 25.813,128.385 25.970 C 128.209 26.064,128.117 26.225,128.181 26.328 C 128.249 26.438,128.219 26.468,128.109 26.400 C 127.748 26.176,127.563 26.973,127.455 29.222 L 127.346 31.491 126.876 31.700 C 126.177 32.009,126.070 32.554,125.938 36.466 C 125.829 39.731,125.792 40.036,125.503 40.127 C 124.814 40.346,124.632 41.139,124.551 44.275 C 124.481 46.939,124.439 47.281,124.136 47.613 C 123.940 47.826,123.852 48.069,123.927 48.190 C 124.002 48.312,123.986 48.355,123.886 48.294 C 123.528 48.072,123.294 49.543,123.204 52.587 C 123.115 55.595,123.094 55.742,122.711 56.128 C 122.022 56.822,121.643 59.048,121.633 62.458 C 121.631 63.384,121.553 64.149,121.456 64.209 C 121.361 64.267,121.322 64.378,121.369 64.454 C 121.417 64.530,121.324 64.582,121.165 64.569 C 120.730 64.535,120.490 65.456,120.353 67.684 L 120.233 69.635 111.389 69.600 C 106.524 69.580,101.370 69.515,99.935 69.454 L 97.326 69.343 97.433 68.319 C 97.492 67.756,97.540 66.701,97.540 65.975 C 97.540 64.784,97.575 64.643,97.895 64.541 C 98.521 64.343,98.761 63.408,98.718 61.336 C 98.640 57.479,98.907 53.216,99.252 52.837 C 99.925 52.096,100.114 51.103,100.204 47.837 C 100.273 45.330,100.341 44.658,100.544 44.498 C 100.686 44.385,100.741 44.207,100.669 44.090 C 100.587 43.957,100.612 43.927,100.741 44.006 C 101.206 44.294,101.486 42.901,101.658 39.440 C 101.804 36.493,101.866 36.020,102.129 35.836 C 102.759 35.394,103.031 34.017,103.043 31.213 C 103.061 26.637,104.255 27.072,91.664 27.064 C 80.555 27.056,81.085 27.004,80.836 28.138 C 80.774 28.422,80.551 28.672,80.236 28.812 C 79.541 29.119,79.437 29.660,79.299 33.697 C 79.184 37.050,79.174 37.117,78.785 37.326 C 78.166 37.657,78.022 38.365,77.912 41.612 C 77.826 44.150,77.765 44.664,77.529 44.835 C 76.865 45.315,76.643 46.432,76.546 49.784 C 76.458 52.844,76.435 53.018,76.080 53.297 C 75.478 53.771,75.190 55.255,75.068 58.524 C 74.967 61.189,74.921 61.531,74.610 61.862 C 74.402 62.085,74.316 62.320,74.394 62.456 C 74.466 62.579,74.460 62.622,74.382 62.551 C 74.037 62.238,73.773 63.820,73.674 66.794 C 73.617 68.497,73.502 69.890,73.417 69.890 C 73.332 69.890,73.309 69.965,73.366 70.057 C 73.428 70.157,73.351 70.180,73.177 70.113 C 72.950 70.026,72.910 70.066,72.997 70.293 C 73.058 70.454,73.041 70.544,72.958 70.492 C 72.617 70.282,72.413 71.687,72.315 74.936 C 72.258 76.826,72.142 78.372,72.058 78.372 C 71.974 78.372,71.952 78.447,72.009 78.539 C 72.067 78.634,72.003 78.665,71.861 78.610 C 71.209 78.360,70.840 80.681,70.723 85.770 C 70.697 86.904,70.644 87.144,70.425 87.127 C 69.763 87.079,69.417 89.063,69.393 93.033 L 69.381 95.056 68.850 95.499 C 68.217 96.028,68.052 97.181,68.034 101.212 C 68.025 103.224,67.981 103.627,67.759 103.713 C 67.613 103.769,67.536 103.883,67.587 103.966 C 67.639 104.050,67.550 104.107,67.390 104.095 C 66.892 104.055,66.710 105.091,66.579 108.704 C 66.459 112.034,66.442 112.157,66.069 112.402 C 65.357 112.868,65.250 113.476,65.237 117.147 C 65.225 120.566,65.222 120.594,64.846 120.689 C 64.061 120.888,63.908 121.596,63.819 125.455 L 63.737 129.030 63.265 129.239 C 62.534 129.563,62.431 130.170,62.317 134.847 C 62.224 138.691,62.177 139.224,61.907 139.525 C 61.257 140.249,61.062 141.282,60.952 144.580 C 60.856 147.498,60.818 147.790,60.511 148.005 C 60.305 148.150,60.216 148.345,60.281 148.514 C 60.339 148.664,60.323 148.748,60.245 148.701 C 59.922 148.501,59.683 150.058,59.592 152.965 C 59.503 155.788,59.467 156.066,59.177 156.157 C 58.487 156.376,58.319 157.145,58.143 160.890 C 57.981 164.309,57.957 164.476,57.582 164.801 C 56.931 165.363,56.611 167.491,56.934 169.105 L 57.040 169.635 68.706 169.635 L 80.373 169.635 80.496 166.586 C 80.609 163.809,80.648 163.529,80.939 163.436 C 81.631 163.217,81.775 162.509,81.881 158.814 L 81.982 155.301 82.498 154.863 C 83.133 154.323,83.269 153.375,83.282 149.402 L 83.291 146.726 83.723 146.562 C 84.418 146.297,84.595 145.552,84.723 142.335 C 84.834 139.550,84.864 139.349,85.247 138.894 C 85.882 138.140,86.021 137.373,86.114 134.097 C 86.161 132.417,86.245 130.929,86.299 130.789 C 86.354 130.649,86.387 130.480,86.373 130.413 C 86.360 130.347,86.449 130.331,86.573 130.378 C 87.066 130.567,87.396 128.837,87.489 125.577 C 87.569 122.744,87.603 122.477,87.895 122.384 C 88.632 122.150,89.032 119.779,89.053 115.534 C 89.058 114.333,89.083 114.253,89.589 113.831 C 90.221 113.304,90.387 112.149,90.405 108.155 L 90.416 105.792 90.940 105.355 C 91.586 104.815,91.754 103.690,91.765 99.829 L 91.773 97.284 92.268 97.065 C 92.905 96.783,93.130 96.126,93.130 94.546 L 93.130 93.299 95.579 93.299 C 97.056 93.299,98.072 93.368,98.136 93.472 C 98.194 93.567,98.305 93.606,98.381 93.558 C 98.457 93.511,98.509 93.604,98.497 93.763 C 98.454 94.291,99.474 94.467,102.629 94.478 C 104.262 94.483,107.945 94.538,110.814 94.599 L 116.031 94.711 116.031 96.369 C 116.031 97.880,116.000 98.036,115.689 98.135 C 114.941 98.372,114.792 99.089,114.707 102.854 L 114.628 106.387 114.218 106.543 C 113.498 106.817,113.338 107.574,113.214 111.303 L 113.099 114.758 112.583 115.196 C 111.948 115.736,111.811 116.684,111.798 120.647 C 111.790 123.147,111.768 123.324,111.446 123.497 C 111.256 123.598,111.154 123.765,111.217 123.868 C 111.285 123.978,111.256 124.008,111.146 123.940 C 110.718 123.676,110.542 124.642,110.466 127.689 C 110.395 130.507,110.360 130.789,110.075 130.880 C 109.255 131.140,108.647 136.973,109.257 138.723 C 109.616 139.753,109.519 139.744,120.356 139.807 C 131.161 139.870,130.782 139.904,131.227 138.839 C 131.359 138.523,131.619 138.184,131.805 138.084 C 132.527 137.697,132.690 137.001,132.773 133.940 C 132.816 132.347,132.895 130.929,132.949 130.789 C 133.004 130.649,133.037 130.480,133.023 130.413 C 133.009 130.347,133.099 130.331,133.222 130.378 C 133.712 130.566,134.039 128.836,134.138 125.535 C 134.227 122.561,134.251 122.386,134.606 122.106 C 135.107 121.713,135.538 120.113,135.539 118.649 C 135.542 115.876,135.740 114.177,136.075 114.071 C 136.767 113.851,136.952 113.059,137.032 109.971 C 137.103 107.250,137.131 107.042,137.441 106.943 C 138.124 106.727,138.303 105.819,138.387 102.150 L 138.466 98.703 138.876 98.547 C 139.592 98.275,139.746 97.538,139.878 93.750 C 139.988 90.579,140.031 90.214,140.312 90.064 C 141.021 89.684,141.187 88.953,141.268 85.835 C 141.335 83.250,141.386 82.822,141.659 82.523 C 142.341 81.775,142.529 80.795,142.614 77.523 C 142.680 75.005,142.747 74.345,142.951 74.184 C 143.095 74.071,143.150 73.893,143.078 73.776 C 142.996 73.643,143.021 73.613,143.150 73.693 C 143.675 74.017,144.176 71.094,144.186 67.652 C 144.190 66.180,144.227 65.981,144.543 65.760 C 145.199 65.301,145.401 64.249,145.503 60.775 C 145.590 57.791,145.625 57.504,145.914 57.413 C 146.609 57.192,146.751 56.481,146.856 52.673 C 146.946 49.420,146.987 49.043,147.252 48.973 C 148.069 48.760,148.396 46.936,148.421 42.457 C 148.430 40.907,148.466 40.705,148.768 40.544 C 149.491 40.157,149.654 39.461,149.736 36.399 C 149.779 34.806,149.859 33.388,149.913 33.249 C 149.967 33.109,150.000 32.940,149.987 32.873 C 149.973 32.806,150.063 32.791,150.186 32.838 C 150.676 33.026,151.003 31.296,151.101 27.995 C 151.190 25.021,151.214 24.846,151.570 24.566 C 152.171 24.093,152.465 22.605,152.594 19.388 C 152.704 16.610,152.729 16.456,153.092 16.218 C 153.663 15.844,153.859 14.752,153.974 11.308 L 154.077 8.227 154.604 7.780 C 155.105 7.354,155.134 7.261,155.190 5.895 C 155.281 3.678,154.963 3.281,152.841 2.963 C 152.422 2.900,151.925 2.711,151.739 2.543 C 150.873 1.763,150.055 1.695,141.657 1.712 C 137.239 1.720,133.512 1.798,133.200 1.888 M323.599 25.764 C 322.173 25.874,322.067 25.910,321.638 26.423 C 321.209 26.937,321.108 26.971,319.668 27.078 C 318.008 27.201,317.309 27.385,317.475 27.654 C 317.534 27.750,317.506 27.808,317.412 27.782 C 317.319 27.756,317.141 27.868,317.018 28.029 C 316.875 28.217,316.396 28.379,315.691 28.477 C 314.345 28.666,313.410 29.091,313.167 29.625 C 313.060 29.860,312.838 30.025,312.630 30.025 C 312.091 30.025,311.651 30.322,311.363 30.879 C 311.220 31.156,310.987 31.383,310.846 31.383 C 310.447 31.383,309.293 32.020,309.042 32.379 C 308.917 32.557,308.525 32.823,308.170 32.972 C 307.756 33.145,307.569 33.313,307.648 33.441 C 307.727 33.570,307.697 33.595,307.564 33.512 C 307.431 33.430,307.322 33.516,307.261 33.748 C 307.209 33.948,306.881 34.257,306.533 34.435 C 306.175 34.618,305.814 34.968,305.700 35.243 C 305.589 35.510,305.278 35.859,305.007 36.019 C 304.737 36.178,304.468 36.461,304.409 36.647 C 304.350 36.832,304.076 37.101,303.799 37.244 C 303.508 37.394,303.346 37.583,303.413 37.692 C 303.484 37.807,303.453 37.833,303.334 37.760 C 303.140 37.640,302.797 38.291,302.752 38.864 C 302.739 39.025,302.620 39.107,302.459 39.065 C 302.184 38.993,301.274 40.405,301.271 40.905 C 301.271 41.032,301.038 41.268,300.755 41.430 C 300.472 41.591,300.130 41.986,299.996 42.308 C 299.861 42.630,299.593 42.943,299.400 43.005 C 299.008 43.129,298.628 43.872,298.480 44.800 C 298.412 45.227,298.259 45.467,297.971 45.598 C 297.437 45.842,297.053 46.437,297.002 47.102 C 296.977 47.429,296.885 47.601,296.760 47.553 C 296.533 47.466,295.674 49.149,295.674 49.680 C 295.674 49.866,295.475 50.175,295.231 50.367 C 294.952 50.586,294.825 50.814,294.890 50.981 C 294.948 51.132,294.920 51.203,294.827 51.146 C 294.737 51.090,294.531 51.517,294.370 52.095 C 294.182 52.771,293.976 53.173,293.791 53.221 C 293.482 53.302,292.791 54.911,292.791 55.549 C 292.791 56.360,292.573 56.990,292.260 57.089 C 291.814 57.231,291.433 58.039,291.433 58.841 C 291.433 59.600,291.300 60.051,291.076 60.051 C 290.993 60.051,290.924 59.459,290.924 58.736 C 290.922 57.116,290.689 56.225,290.178 55.890 C 289.804 55.645,289.781 55.509,289.667 52.749 C 289.535 49.590,289.413 49.011,288.808 48.688 C 288.454 48.498,288.392 48.313,288.302 47.179 C 288.150 45.266,287.953 44.679,287.377 44.424 C 286.944 44.232,286.877 44.098,286.777 43.212 C 286.629 41.904,286.581 41.804,285.927 41.418 C 285.462 41.143,285.351 40.955,285.248 40.270 C 285.158 39.668,284.983 39.314,284.589 38.936 C 284.294 38.654,283.959 38.212,283.845 37.956 C 283.731 37.699,283.399 37.344,283.108 37.167 C 282.817 36.990,282.436 36.610,282.261 36.323 C 282.087 36.037,281.751 35.754,281.515 35.694 C 281.279 35.635,281.086 35.491,281.086 35.373 C 281.086 35.006,280.398 34.266,280.056 34.266 C 279.871 34.266,279.729 34.150,279.729 33.999 C 279.729 33.610,278.797 32.740,278.381 32.740 C 278.170 32.740,277.950 32.574,277.840 32.334 C 277.621 31.853,277.073 31.577,276.065 31.439 C 275.538 31.367,275.250 31.219,275.055 30.922 C 274.681 30.351,273.913 30.066,272.371 29.926 C 271.311 29.830,271.009 29.737,270.771 29.435 C 270.139 28.632,268.240 28.360,263.129 28.337 C 261.286 28.329,261.188 28.311,260.872 27.909 C 260.312 27.197,259.849 27.176,242.318 27.056 C 223.442 26.926,224.128 26.892,223.643 27.992 C 223.479 28.363,223.206 28.710,223.036 28.764 C 222.298 28.998,222.164 29.721,222.150 33.537 C 222.137 37.111,222.135 37.133,221.759 37.229 C 221.016 37.417,220.839 38.147,220.737 41.454 C 220.647 44.356,220.622 44.538,220.269 44.816 C 219.665 45.291,219.380 46.773,219.263 50.042 C 219.165 52.765,219.127 53.036,218.805 53.307 C 218.599 53.481,218.496 53.713,218.555 53.868 C 218.610 54.013,218.588 54.089,218.505 54.038 C 218.160 53.825,217.948 55.220,217.858 58.312 C 217.786 60.757,217.704 61.625,217.532 61.768 C 217.406 61.873,217.300 61.892,217.297 61.810 C 217.293 61.729,217.135 62.082,216.946 62.595 C 216.663 63.361,216.584 64.100,216.503 66.709 C 216.449 68.458,216.335 69.890,216.250 69.890 C 216.165 69.890,216.137 69.957,216.188 70.040 C 216.239 70.123,216.149 70.180,215.986 70.167 C 215.803 70.153,215.700 70.255,215.715 70.439 C 215.727 70.601,215.678 70.697,215.605 70.652 C 215.301 70.464,214.958 73.913,214.934 77.385 C 214.929 78.208,214.877 78.365,214.576 78.460 C 214.358 78.529,214.261 78.666,214.320 78.820 C 214.372 78.956,214.347 79.026,214.264 78.974 C 213.923 78.763,213.720 80.169,213.621 83.418 C 213.564 85.307,213.449 86.853,213.364 86.853 C 213.280 86.853,213.258 86.929,213.315 87.021 C 213.373 87.114,213.311 87.147,213.178 87.096 C 212.639 86.889,212.374 88.245,212.265 91.773 L 212.162 95.123 211.683 95.406 C 211.019 95.798,210.906 96.397,210.771 100.254 L 210.656 103.562 210.137 103.996 C 209.530 104.504,209.363 105.705,209.342 109.742 L 209.330 112.019 208.806 112.457 C 208.160 112.996,207.992 114.122,207.980 117.982 L 207.973 120.528 207.474 120.749 C 206.757 121.066,206.655 121.584,206.525 125.567 C 206.418 128.817,206.385 129.089,206.087 129.184 C 205.344 129.419,205.193 130.153,205.183 133.588 C 205.173 137.268,205.293 137.730,206.352 138.080 C 207.218 138.366,227.053 138.415,227.684 138.133 C 228.630 137.710,228.726 137.334,228.898 133.356 C 229.052 129.816,229.070 129.686,229.452 129.385 C 230.029 128.931,230.154 128.195,230.284 124.476 C 230.392 121.393,230.427 121.123,230.724 121.028 C 231.445 120.800,231.596 120.063,231.685 116.323 L 231.770 112.791 232.248 112.544 C 232.928 112.192,233.053 111.541,233.177 107.684 C 233.282 104.438,233.296 104.333,233.676 104.085 C 234.258 103.704,234.395 103.005,234.511 99.842 C 234.568 98.262,234.689 96.881,234.779 96.773 C 234.868 96.665,234.888 96.522,234.821 96.455 C 234.755 96.389,234.822 96.381,234.971 96.438 C 235.132 96.500,235.281 96.436,235.342 96.278 C 235.431 96.045,236.169 96.014,241.458 96.014 L 247.472 96.014 247.594 97.583 C 247.708 99.057,247.748 99.183,248.258 99.666 L 248.800 100.180 248.968 103.652 C 249.139 107.181,249.241 107.678,249.902 108.220 C 250.182 108.450,250.239 108.863,250.371 111.620 C 250.512 114.587,250.785 116.080,251.123 115.742 C 251.192 115.673,251.203 115.734,251.148 115.877 C 251.091 116.025,251.197 116.272,251.394 116.449 C 251.705 116.731,251.740 116.971,251.747 118.898 C 251.762 122.344,251.915 123.297,252.542 123.820 L 253.067 124.258 253.182 127.481 C 253.312 131.117,253.436 131.819,254.031 132.287 C 254.430 132.601,254.455 132.735,254.600 135.307 C 254.767 138.256,255.000 139.068,255.791 139.453 C 256.953 140.020,277.054 140.101,278.336 139.544 C 279.677 138.962,279.975 137.582,278.965 136.630 L 278.372 136.070 278.364 134.235 C 278.351 131.102,278.153 129.933,277.547 129.427 L 277.031 128.997 276.922 126.288 C 276.793 123.113,276.661 122.447,276.101 122.148 C 275.706 121.936,275.691 121.854,275.579 119.192 C 275.448 116.049,275.310 115.444,274.650 115.103 L 274.180 114.860 274.086 111.840 C 273.988 108.698,273.788 107.682,273.125 106.960 C 272.858 106.670,272.783 106.161,272.643 103.724 C 272.475 100.771,272.191 99.607,271.688 99.800 C 271.570 99.846,271.469 99.795,271.465 99.687 C 271.327 96.310,271.190 94.228,271.059 93.539 C 270.815 92.254,271.047 91.773,271.913 91.773 C 273.191 91.773,274.308 91.426,274.977 90.821 C 275.327 90.505,275.741 90.246,275.897 90.246 C 276.347 90.246,277.495 89.598,277.690 89.235 C 277.787 89.052,278.202 88.755,278.611 88.574 C 279.037 88.385,279.404 88.091,279.470 87.885 C 279.532 87.688,279.832 87.422,280.136 87.295 C 280.462 87.159,280.772 86.862,280.893 86.570 C 281.013 86.280,281.308 85.996,281.604 85.884 C 281.935 85.759,282.198 85.482,282.366 85.080 C 282.507 84.741,282.819 84.377,283.063 84.266 C 283.327 84.146,283.630 83.772,283.816 83.338 C 283.987 82.939,284.214 82.612,284.321 82.612 C 284.427 82.612,284.469 82.494,284.414 82.349 C 284.358 82.204,284.383 82.129,284.469 82.182 C 284.667 82.305,284.777 82.122,285.158 81.038 C 285.328 80.557,285.531 80.141,285.609 80.115 C 285.687 80.089,285.751 85.812,285.751 92.833 C 285.751 106.608,285.754 106.660,286.634 106.939 C 286.922 107.031,286.973 107.331,287.132 109.885 C 287.308 112.728,287.450 113.333,288.053 113.825 C 288.281 114.011,288.415 114.488,288.550 115.590 C 288.740 117.136,288.960 117.808,289.225 117.644 C 289.307 117.593,289.430 117.641,289.497 117.750 C 289.574 117.874,289.546 117.903,289.424 117.828 C 289.316 117.761,289.228 117.783,289.228 117.875 C 289.228 117.968,289.374 118.089,289.552 118.146 C 289.804 118.226,289.901 118.478,289.996 119.302 C 290.103 120.238,290.191 120.425,290.775 120.966 C 291.274 121.429,291.433 121.707,291.433 122.117 C 291.433 122.913,291.864 123.805,292.358 124.030 C 292.596 124.139,292.791 124.320,292.791 124.433 C 292.791 124.898,293.496 126.187,293.892 126.447 C 294.160 126.622,294.317 126.884,294.317 127.153 C 294.317 127.601,294.992 128.411,295.370 128.418 C 295.491 128.420,295.704 128.668,295.844 128.969 C 295.984 129.270,296.304 129.614,296.555 129.733 C 296.806 129.852,297.064 130.116,297.129 130.319 C 297.279 130.792,297.543 131.052,298.029 131.207 C 298.248 131.276,298.495 131.553,298.595 131.840 C 298.701 132.143,298.969 132.433,299.253 132.553 C 299.516 132.663,299.909 133.018,300.126 133.341 C 300.343 133.663,300.672 133.949,300.856 133.976 C 301.041 134.003,301.343 134.303,301.529 134.643 C 301.739 135.029,302.057 135.323,302.375 135.425 C 302.655 135.515,302.946 135.693,303.021 135.821 C 303.097 135.950,303.230 136.011,303.316 135.957 C 303.403 135.904,303.430 135.973,303.378 136.110 C 303.257 136.424,303.698 136.668,304.814 136.907 C 305.410 137.035,305.699 137.190,305.772 137.419 C 305.918 137.878,306.613 138.196,307.789 138.343 C 308.500 138.432,308.895 138.579,309.146 138.849 C 309.746 139.495,310.766 139.758,313.170 139.885 L 315.426 140.004 315.961 140.570 L 316.495 141.137 320.823 141.137 C 325.361 141.137,327.034 140.916,326.816 140.347 C 326.768 140.224,326.784 140.134,326.851 140.148 C 326.918 140.161,327.087 140.129,327.226 140.076 C 327.366 140.023,328.474 139.903,329.688 139.810 C 332.067 139.627,332.691 139.444,332.960 138.854 C 333.101 138.544,333.318 138.455,334.138 138.369 C 335.449 138.232,335.673 138.134,335.963 137.574 C 336.157 137.198,336.365 137.082,337.015 136.984 C 338.070 136.826,338.649 136.515,338.895 135.975 C 339.004 135.735,339.219 135.539,339.371 135.539 C 339.774 135.539,341.306 134.671,341.306 134.443 C 341.306 134.336,341.651 134.081,342.073 133.877 C 342.495 133.672,342.919 133.332,343.017 133.122 C 343.114 132.912,343.437 132.625,343.734 132.485 C 344.030 132.345,344.365 132.044,344.476 131.815 C 344.588 131.587,344.953 131.259,345.288 131.088 C 345.712 130.870,345.927 130.626,345.995 130.286 C 346.062 129.951,346.253 129.731,346.599 129.587 C 346.877 129.472,347.219 129.138,347.359 128.845 C 347.499 128.551,347.778 128.239,347.980 128.151 C 348.181 128.062,348.495 127.670,348.676 127.280 C 348.858 126.889,349.166 126.484,349.361 126.380 C 349.557 126.275,349.890 125.754,350.101 125.221 C 350.361 124.566,350.644 124.162,350.975 123.972 C 351.298 123.787,351.523 123.472,351.639 123.042 C 351.736 122.684,351.965 122.299,352.148 122.185 C 352.479 121.979,353.181 120.609,353.181 120.169 C 353.181 120.044,353.403 119.826,353.675 119.685 C 354.166 119.431,354.382 118.987,354.630 117.727 C 354.703 117.355,354.957 116.958,355.309 116.664 C 355.777 116.274,355.891 116.039,355.988 115.263 C 356.086 114.478,356.181 114.285,356.588 114.044 C 357.148 113.713,357.422 113.057,357.422 112.045 C 357.422 111.545,357.524 111.241,357.767 111.021 C 358.297 110.541,358.788 109.275,358.897 108.104 C 358.973 107.298,359.068 107.025,359.297 106.952 C 359.865 106.772,360.150 106.056,360.257 104.537 C 360.346 103.273,360.420 103.008,360.784 102.644 C 361.368 102.060,361.599 101.169,361.744 98.945 C 361.850 97.327,361.914 97.028,362.174 96.946 C 362.837 96.735,363.063 95.619,363.151 92.122 L 363.235 88.823 363.781 88.305 C 364.288 87.823,364.334 87.684,364.434 86.344 C 364.638 83.610,364.737 70.471,364.591 65.580 L 364.444 60.676 363.840 60.151 L 363.236 59.627 363.150 57.082 C 363.057 54.353,362.777 53.203,362.155 53.006 C 361.978 52.950,361.831 52.813,361.829 52.703 C 361.798 50.647,361.321 48.754,360.877 48.925 C 360.736 48.979,360.672 48.947,360.731 48.852 C 360.789 48.759,360.716 48.637,360.571 48.581 C 360.388 48.511,360.305 48.256,360.305 47.759 C 360.305 46.732,360.002 45.998,359.462 45.719 C 359.073 45.518,358.974 45.328,358.877 44.592 C 358.730 43.486,358.555 43.156,357.950 42.843 C 357.562 42.642,357.449 42.445,357.363 41.816 C 357.227 40.823,356.960 40.319,356.636 40.443 C 356.495 40.497,356.431 40.466,356.490 40.370 C 356.548 40.277,356.478 40.156,356.336 40.102 C 356.194 40.047,356.028 39.838,355.967 39.637 C 355.824 39.165,355.222 38.507,354.932 38.507 C 354.809 38.507,354.707 38.423,354.707 38.319 C 354.707 37.884,353.932 36.473,353.734 36.548 C 353.619 36.593,353.540 36.575,353.560 36.508 C 353.606 36.350,352.454 35.198,352.296 35.244 C 352.230 35.264,352.211 35.186,352.254 35.070 C 352.297 34.955,352.097 34.726,351.808 34.562 C 351.519 34.398,351.241 34.107,351.191 33.916 C 351.136 33.703,351.007 33.604,350.859 33.661 C 350.727 33.712,350.663 33.681,350.718 33.593 C 350.772 33.505,350.626 33.308,350.394 33.156 C 350.161 33.004,349.925 32.733,349.868 32.555 C 349.811 32.377,349.689 32.231,349.597 32.231 C 349.504 32.231,349.483 32.319,349.550 32.427 C 349.625 32.549,349.596 32.576,349.472 32.500 C 349.363 32.432,349.316 32.309,349.367 32.225 C 349.472 32.056,348.252 31.383,347.840 31.383 C 347.694 31.383,347.503 31.196,347.416 30.967 C 347.196 30.388,346.629 30.065,345.594 29.930 C 344.968 29.847,344.681 29.727,344.614 29.518 C 344.440 28.967,343.849 28.611,342.895 28.482 C 342.115 28.376,341.863 28.255,341.491 27.809 C 341.052 27.284,340.975 27.260,339.178 27.096 C 337.632 26.955,337.241 26.860,336.848 26.531 C 335.943 25.774,328.805 25.361,323.599 25.764 M156.627 27.150 C 156.232 27.271,156.007 27.496,155.789 27.990 C 155.625 28.362,155.352 28.710,155.182 28.764 C 154.444 28.998,154.310 29.721,154.296 33.537 C 154.283 37.111,154.281 37.133,153.905 37.229 C 153.161 37.417,152.985 38.147,152.883 41.454 C 152.793 44.356,152.768 44.538,152.415 44.816 C 151.814 45.289,151.526 46.774,151.403 50.042 C 151.303 52.707,151.257 53.049,150.946 53.380 C 150.745 53.595,150.654 53.836,150.729 53.958 C 150.808 54.084,150.788 54.123,150.679 54.055 C 150.305 53.824,150.097 55.136,150.004 58.312 C 149.932 60.757,149.850 61.625,149.678 61.768 C 149.552 61.873,149.446 61.892,149.443 61.810 C 149.439 61.729,149.281 62.082,149.092 62.595 C 148.809 63.361,148.729 64.100,148.649 66.709 C 148.595 68.458,148.481 69.890,148.396 69.890 C 148.311 69.890,148.283 69.957,148.334 70.040 C 148.385 70.123,148.294 70.180,148.132 70.167 C 147.948 70.153,147.846 70.255,147.860 70.439 C 147.873 70.601,147.824 70.697,147.751 70.652 C 147.447 70.464,147.225 72.687,147.055 77.627 C 147.027 78.457,146.966 78.660,146.750 78.645 C 146.104 78.599,145.877 79.688,145.767 83.362 C 145.710 85.282,145.595 86.853,145.510 86.853 C 145.426 86.853,145.404 86.929,145.461 87.021 C 145.518 87.114,145.457 87.147,145.324 87.096 C 144.787 86.890,144.523 88.239,144.414 91.748 C 144.334 94.308,144.256 95.112,144.077 95.218 C 143.948 95.294,143.883 95.419,143.930 95.496 C 143.978 95.573,143.886 95.626,143.726 95.613 C 143.232 95.573,143.056 96.579,142.928 100.158 L 142.806 103.560 142.286 103.995 C 141.675 104.504,141.509 105.700,141.488 109.742 L 141.476 112.019 140.952 112.457 C 140.306 112.996,140.137 114.122,140.126 117.982 L 140.119 120.528 139.620 120.749 C 138.903 121.066,138.801 121.584,138.670 125.567 C 138.564 128.817,138.531 129.089,138.232 129.184 C 137.315 129.475,136.826 135.908,137.611 137.344 C 138.143 138.315,137.546 138.283,156.715 138.379 L 174.413 138.468 174.587 138.851 C 174.966 139.681,174.861 139.673,187.956 139.787 C 202.216 139.910,201.641 139.962,201.963 138.507 C 202.024 138.227,202.227 137.854,202.413 137.677 C 203.097 137.029,203.263 136.247,203.426 132.909 C 203.561 130.145,203.627 129.649,203.887 129.425 C 204.526 128.875,204.622 128.382,204.792 124.780 C 204.955 121.314,204.973 121.194,205.367 120.865 C 206.092 120.259,206.376 118.061,205.858 117.058 C 205.459 116.288,204.819 116.155,201.116 116.071 L 197.738 115.994 197.215 115.445 L 196.692 114.895 189.243 114.784 C 185.146 114.723,178.060 114.673,173.497 114.673 L 165.201 114.673 165.319 112.256 C 165.428 110.017,165.465 109.814,165.828 109.500 C 166.424 108.984,166.584 108.090,166.696 104.665 L 166.799 101.527 167.307 101.095 C 167.907 100.585,168.169 98.517,168.075 95.012 L 168.024 93.078 171.317 93.189 C 173.128 93.250,178.370 93.299,182.968 93.299 C 191.192 93.299,191.327 93.305,191.434 93.641 C 191.673 94.394,192.246 94.487,196.678 94.487 C 203.223 94.487,203.246 94.468,203.483 88.674 C 203.584 86.180,203.637 85.802,203.912 85.610 C 204.521 85.183,204.882 82.536,204.913 78.256 C 204.918 77.516,204.976 77.359,205.274 77.264 C 205.856 77.079,206.100 76.185,206.140 74.098 C 206.208 70.569,207.012 70.836,196.140 70.768 C 187.640 70.715,187.442 70.706,187.264 70.373 C 187.157 70.173,186.979 70.073,186.831 70.129 C 186.694 70.182,186.623 70.158,186.674 70.075 C 186.897 69.713,185.776 69.639,179.262 69.586 L 172.349 69.530 172.352 69.158 C 172.354 68.954,172.534 68.618,172.753 68.411 C 173.383 67.813,173.665 66.370,173.788 63.107 C 173.855 61.325,173.972 60.097,174.079 60.030 C 174.178 59.969,174.205 59.832,174.140 59.726 C 174.072 59.617,174.111 59.554,174.229 59.580 C 174.725 59.691,175.076 58.012,175.181 55.032 L 175.283 52.134 193.112 52.209 L 210.941 52.283 211.324 52.683 C 211.831 53.213,212.912 53.487,214.146 53.397 C 215.414 53.306,215.808 52.900,216.104 51.378 C 216.219 50.783,216.454 50.144,216.624 49.958 C 217.174 49.357,217.445 47.878,217.565 44.831 C 217.668 42.231,217.714 41.900,217.985 41.814 C 218.620 41.613,218.838 40.515,218.948 36.980 L 219.051 33.630 219.528 33.349 C 220.677 32.670,220.498 29.532,219.272 28.881 C 218.541 28.494,214.627 28.360,203.526 28.343 C 194.653 28.329,194.582 28.326,194.395 27.977 C 194.283 27.767,194.105 27.663,193.956 27.720 C 193.818 27.773,193.749 27.746,193.802 27.661 C 194.091 27.192,193.023 27.160,174.470 27.070 C 163.516 27.017,156.969 27.046,156.627 27.150 M377.210 28.503 C 376.671 28.665,376.265 29.113,376.256 29.555 C 376.253 29.716,376.061 29.973,375.828 30.125 C 375.596 30.277,375.455 30.482,375.515 30.579 C 375.577 30.679,375.544 30.706,375.438 30.641 C 374.997 30.368,374.842 31.342,374.760 34.904 L 374.676 38.523 374.206 38.767 C 373.541 39.110,373.413 39.705,373.293 42.995 C 373.197 45.602,373.155 45.901,372.839 46.195 C 372.633 46.387,372.524 46.651,372.574 46.840 C 372.619 47.015,372.595 47.121,372.520 47.074 C 372.259 46.913,372.030 48.616,371.928 51.484 C 371.835 54.120,371.796 54.394,371.476 54.665 C 371.271 54.838,371.167 55.070,371.227 55.225 C 371.282 55.370,371.262 55.448,371.181 55.398 C 370.804 55.164,370.499 57.500,370.471 60.845 C 370.455 62.685,370.401 63.232,370.240 63.170 C 369.602 62.925,369.179 64.739,369.049 68.278 C 368.950 70.941,368.915 71.183,368.586 71.436 C 368.360 71.609,368.279 71.790,368.365 71.928 C 368.449 72.065,368.433 72.106,368.322 72.037 C 368.001 71.839,367.907 72.476,367.729 76.081 C 367.633 78.041,367.486 79.670,367.404 79.701 C 366.623 80.002,366.419 80.951,366.296 84.857 C 366.205 87.742,366.152 88.216,365.914 88.292 C 365.196 88.520,365.019 89.287,364.845 92.938 C 364.694 96.082,364.643 96.467,364.344 96.730 C 364.161 96.890,364.061 97.102,364.122 97.200 C 364.183 97.299,364.137 97.358,364.020 97.332 C 363.698 97.261,363.562 98.308,363.436 101.828 C 363.332 104.728,363.293 105.028,362.996 105.186 C 362.817 105.282,362.723 105.445,362.787 105.548 C 362.856 105.661,362.825 105.687,362.706 105.614 C 362.316 105.373,362.150 106.480,362.049 109.977 C 361.951 113.384,361.934 113.524,361.584 113.684 C 360.849 114.018,360.760 114.425,360.585 118.265 C 360.420 121.865,360.408 121.946,360.020 122.154 C 359.447 122.461,359.329 123.155,359.197 127.009 C 359.088 130.171,359.054 130.447,358.757 130.541 C 357.640 130.896,357.330 137.969,358.381 139.130 C 358.903 139.707,359.826 139.761,369.975 139.802 C 382.513 139.853,381.373 140.220,381.604 136.056 C 381.712 134.111,381.753 133.918,382.120 133.629 C 382.697 133.175,382.825 132.444,382.956 128.838 L 383.074 125.615 383.595 125.177 C 384.234 124.639,384.372 123.700,384.385 119.780 L 384.394 117.169 385.011 116.636 L 385.628 116.102 385.768 112.903 C 385.891 110.082,385.947 109.662,386.239 109.348 C 386.812 108.729,387.074 107.292,387.185 104.156 C 387.277 101.545,387.328 101.155,387.606 100.919 C 388.259 100.366,388.496 99.152,388.580 95.929 C 388.624 94.249,388.705 92.761,388.759 92.621 C 388.813 92.481,388.847 92.312,388.833 92.245 C 388.819 92.179,388.905 92.161,389.023 92.206 C 389.507 92.392,389.845 90.781,390.003 87.535 C 390.137 84.765,390.193 84.370,390.477 84.142 C 391.156 83.600,391.482 81.292,391.512 76.814 C 391.517 76.018,391.575 75.832,391.842 75.747 C 392.504 75.537,392.716 74.469,392.826 70.801 C 392.915 67.790,392.964 67.340,393.211 67.262 C 393.852 67.058,394.062 66.097,394.239 62.546 L 394.409 59.127 394.895 58.683 C 395.492 58.138,395.541 57.833,395.684 53.774 L 395.794 50.636 396.311 50.203 C 396.916 49.695,397.083 48.489,397.104 44.475 L 397.116 42.216 397.687 41.676 C 398.343 41.055,398.385 40.799,398.572 36.278 C 398.678 33.716,398.696 33.617,399.082 33.410 C 400.238 32.791,399.957 29.447,398.698 28.844 C 397.781 28.405,378.556 28.099,377.210 28.503 M243.596 49.703 C 244.090 50.626,244.119 50.629,251.832 50.721 C 257.170 50.784,259.045 50.859,259.235 51.016 C 259.374 51.132,259.543 51.173,259.609 51.106 C 259.675 51.040,259.681 51.111,259.623 51.264 C 259.461 51.685,260.765 52.171,262.374 52.289 C 262.485 52.297,262.572 52.349,262.566 52.403 C 262.521 52.824,262.945 53.116,264.158 53.498 C 264.361 53.562,264.483 53.857,264.565 54.487 C 264.660 55.219,264.795 55.494,265.293 55.966 L 265.903 56.546 265.903 61.112 C 265.903 65.472,265.888 65.692,265.564 65.961 C 265.168 66.290,264.631 67.381,264.631 67.856 C 264.631 68.037,264.436 68.313,264.198 68.469 C 263.960 68.625,263.651 68.974,263.511 69.245 C 263.150 69.943,262.085 70.967,261.443 71.232 C 261.144 71.356,260.899 71.529,260.899 71.617 C 260.899 71.704,260.994 71.721,261.111 71.654 C 261.228 71.587,261.272 71.588,261.210 71.658 C 261.148 71.727,261.045 71.773,260.983 71.759 C 260.920 71.745,260.780 71.854,260.672 72.001 C 260.561 72.152,260.029 72.340,259.457 72.431 C 258.641 72.561,258.353 72.695,258.003 73.107 L 257.566 73.622 248.127 73.622 L 238.688 73.622 238.792 71.374 C 238.895 69.132,238.896 69.125,239.410 68.688 C 240.045 68.148,240.182 67.200,240.195 63.236 L 240.204 60.569 240.698 60.313 C 241.393 59.953,241.516 59.391,241.646 55.980 C 241.708 54.347,241.828 52.986,241.914 52.954 C 242.000 52.923,242.070 52.823,242.070 52.732 C 242.070 52.641,241.981 52.621,241.874 52.688 C 241.751 52.764,241.724 52.734,241.801 52.610 C 241.868 52.501,241.996 52.457,242.085 52.512 C 242.328 52.662,242.740 51.529,242.860 50.381 C 242.971 49.314,243.250 49.057,243.596 49.703 M331.218 49.719 C 331.360 50.167,332.541 50.712,333.379 50.717 C 333.895 50.720,334.057 50.803,334.212 51.145 C 334.319 51.378,334.459 51.569,334.524 51.569 C 334.590 51.569,334.915 51.753,335.247 51.979 C 335.579 52.204,335.901 52.338,335.963 52.276 C 336.025 52.214,336.060 52.239,336.042 52.332 C 335.970 52.685,336.054 52.926,336.249 52.926 C 336.537 52.926,337.235 53.620,337.235 53.907 C 337.235 54.057,337.336 54.111,337.498 54.049 C 337.643 53.993,337.720 54.015,337.670 54.096 C 337.619 54.178,337.682 54.332,337.810 54.438 C 337.938 54.543,338.087 54.855,338.142 55.130 C 338.241 55.623,338.701 56.214,339.086 56.342 C 339.199 56.380,339.349 57.047,339.438 57.907 C 339.597 59.450,339.875 60.120,340.427 60.295 C 341.014 60.482,341.102 82.337,340.516 82.561 C 340.392 82.609,340.332 82.715,340.383 82.798 C 340.434 82.880,340.363 82.905,340.225 82.852 C 339.737 82.664,339.552 83.492,339.410 86.496 C 339.334 88.120,339.195 89.539,339.103 89.650 C 339.010 89.762,338.989 89.907,339.055 89.974 C 339.121 90.040,339.058 90.049,338.914 89.994 C 338.420 89.804,337.958 92.134,337.918 95.027 C 337.915 95.184,337.755 95.362,337.562 95.424 C 337.344 95.493,337.246 95.629,337.306 95.783 C 337.358 95.920,337.333 95.989,337.250 95.938 C 337.003 95.786,336.731 96.819,336.613 98.355 C 336.524 99.514,336.446 99.806,336.210 99.868 C 335.793 99.977,335.359 101.155,335.205 102.595 C 335.115 103.437,334.968 103.953,334.744 104.207 C 334.308 104.700,333.851 105.805,333.808 106.470 C 333.787 106.787,333.695 106.973,333.580 106.929 C 333.314 106.827,332.937 107.319,333.090 107.568 C 333.164 107.687,333.144 107.727,333.042 107.663 C 332.942 107.601,332.746 107.945,332.579 108.478 C 332.410 109.015,332.168 109.439,331.999 109.492 C 331.621 109.612,331.189 110.359,331.041 111.147 C 330.953 111.618,330.779 111.862,330.353 112.114 C 330.039 112.299,329.735 112.639,329.677 112.869 C 329.613 113.124,329.409 113.328,329.154 113.392 C 328.924 113.450,328.579 113.762,328.388 114.086 C 328.177 114.444,327.863 114.714,327.591 114.773 C 326.797 114.945,326.210 115.218,326.304 115.370 C 326.355 115.451,326.284 115.475,326.148 115.423 C 325.994 115.364,325.858 115.461,325.789 115.679 C 325.658 116.091,325.417 116.154,323.494 116.286 C 320.820 116.469,316.524 116.238,316.413 115.906 C 316.265 115.461,315.646 114.843,315.349 114.843 C 315.175 114.843,314.903 114.624,314.745 114.357 C 314.587 114.090,314.239 113.742,313.972 113.584 C 313.705 113.426,313.486 113.211,313.486 113.106 C 313.486 112.844,312.796 112.129,312.544 112.129 C 312.431 112.129,312.251 111.766,312.144 111.323 C 311.843 110.083,311.613 109.605,311.263 109.494 C 310.901 109.379,310.831 109.129,310.704 107.507 C 310.607 106.255,310.412 105.748,309.861 105.311 L 309.500 105.023 309.512 95.331 C 309.521 87.543,309.567 85.612,309.745 85.502 C 309.867 85.426,309.914 85.278,309.848 85.172 C 309.781 85.063,309.820 84.999,309.939 85.025 C 310.371 85.121,310.720 83.296,310.832 80.352 L 310.940 77.498 311.428 77.010 C 312.022 76.416,312.094 76.113,312.237 73.583 C 312.329 71.956,312.401 71.577,312.627 71.505 C 313.151 71.338,313.492 70.451,313.638 68.873 C 313.744 67.721,313.865 67.235,314.114 66.956 C 314.543 66.475,314.960 65.278,315.063 64.235 C 315.128 63.578,315.250 63.326,315.678 62.963 C 316.122 62.587,316.241 62.325,316.386 61.411 C 316.494 60.728,316.681 60.199,316.880 60.013 C 317.189 59.726,317.897 58.311,317.897 57.982 C 317.897 57.895,318.156 57.578,318.474 57.278 C 318.910 56.867,319.082 56.535,319.173 55.926 C 319.272 55.266,319.384 55.073,319.789 54.863 C 320.061 54.722,320.407 54.349,320.558 54.033 C 320.719 53.696,321.000 53.417,321.239 53.357 C 321.463 53.301,321.803 52.990,321.993 52.666 C 322.184 52.343,322.451 52.078,322.585 52.078 C 323.007 52.078,324.153 51.414,324.343 51.060 C 324.465 50.832,324.703 50.719,325.070 50.714 C 325.901 50.702,326.931 50.274,327.281 49.794 C 327.726 49.183,331.028 49.120,331.218 49.719 M286.949 78.502 C 286.738 78.713,286.669 78.371,286.800 77.753 L 286.938 77.099 286.992 77.752 C 287.021 78.112,287.002 78.449,286.949 78.502 " stroke="none" fill="#c43434" fill-rule="evenodd"></path><path id="path1" d="M136.090 1.653 C 136.720 1.685,137.750 1.685,138.380 1.653 C 139.010 1.620,138.494 1.593,137.235 1.593 C 135.975 1.593,135.460 1.620,136.090 1.653 M130.150 13.740 C 130.150 14.067,130.185 14.201,130.227 14.037 C 130.270 13.874,130.270 13.607,130.227 13.444 C 130.185 13.280,130.150 13.414,130.150 13.740 M152.548 20.017 C 152.548 20.437,152.581 20.609,152.622 20.399 C 152.662 20.189,152.662 19.845,152.622 19.635 C 152.581 19.425,152.548 19.597,152.548 20.017 M333.545 25.732 C 333.709 25.775,333.976 25.775,334.139 25.732 C 334.302 25.689,334.169 25.654,333.842 25.654 C 333.516 25.654,333.382 25.689,333.545 25.732 M98.512 27.094 C 98.813 27.132,99.347 27.133,99.699 27.096 C 100.051 27.059,99.805 27.028,99.152 27.028 C 98.499 27.027,98.211 27.057,98.512 27.094 M175.106 27.099 C 176.389 27.128,178.488 27.128,179.771 27.099 C 181.054 27.070,180.004 27.046,177.439 27.046 C 174.873 27.046,173.823 27.070,175.106 27.099 M242.960 27.099 C 244.243 27.128,246.342 27.128,247.625 27.099 C 248.908 27.070,247.858 27.046,245.293 27.046 C 242.727 27.046,241.677 27.070,242.960 27.099 M319.296 27.089 C 319.459 27.132,319.726 27.132,319.890 27.089 C 320.053 27.046,319.919 27.011,319.593 27.011 C 319.266 27.011,319.133 27.046,319.296 27.089 M127.435 27.990 C 127.435 28.316,127.470 28.450,127.513 28.287 C 127.556 28.123,127.556 27.856,127.513 27.693 C 127.470 27.530,127.435 27.663,127.435 27.990 M214.298 28.455 C 214.838 28.488,215.678 28.488,216.164 28.454 C 216.650 28.420,216.209 28.392,215.182 28.393 C 214.156 28.393,213.758 28.421,214.298 28.455 M266.117 28.449 C 266.328 28.490,266.634 28.488,266.796 28.446 C 266.958 28.403,266.785 28.370,266.412 28.372 C 266.039 28.374,265.906 28.408,266.117 28.449 M394.105 28.454 C 394.548 28.489,395.274 28.489,395.717 28.454 C 396.160 28.419,395.797 28.390,394.911 28.390 C 394.025 28.390,393.662 28.419,394.105 28.454 M154.238 30.874 C 154.238 31.200,154.273 31.334,154.315 31.170 C 154.358 31.007,154.358 30.740,154.315 30.577 C 154.273 30.413,154.238 30.547,154.238 30.874 M222.092 30.874 C 222.092 31.200,222.127 31.334,222.170 31.170 C 222.212 31.007,222.212 30.740,222.170 30.577 C 222.127 30.413,222.092 30.547,222.092 30.874 M374.764 32.231 C 374.764 32.557,374.799 32.691,374.841 32.528 C 374.884 32.364,374.884 32.097,374.841 31.934 C 374.799 31.771,374.764 31.904,374.764 32.231 M79.259 33.249 C 79.259 33.575,79.294 33.709,79.337 33.545 C 79.379 33.382,79.379 33.115,79.337 32.952 C 79.294 32.788,79.259 32.922,79.259 33.249 M125.912 35.199 C 125.914 35.573,125.949 35.705,125.989 35.494 C 126.030 35.283,126.028 34.978,125.986 34.816 C 125.943 34.653,125.910 34.826,125.912 35.199 M101.664 39.610 C 101.665 40.170,101.697 40.378,101.734 40.073 C 101.772 39.768,101.771 39.310,101.733 39.055 C 101.694 38.801,101.663 39.050,101.664 39.610 M152.881 39.355 C 152.881 39.682,152.916 39.816,152.958 39.652 C 153.001 39.489,153.001 39.222,152.958 39.059 C 152.916 38.895,152.881 39.029,152.881 39.355 M220.735 39.355 C 220.735 39.682,220.770 39.816,220.812 39.652 C 220.855 39.489,220.855 39.222,220.812 39.059 C 220.770 38.895,220.735 39.029,220.735 39.355 M77.902 39.695 C 77.902 40.021,77.937 40.155,77.980 39.992 C 78.022 39.828,78.022 39.561,77.980 39.398 C 77.937 39.235,77.902 39.368,77.902 39.695 M373.240 43.172 C 373.242 43.545,373.277 43.678,373.318 43.467 C 373.358 43.256,373.357 42.951,373.314 42.789 C 373.272 42.626,373.239 42.799,373.240 43.172 M217.519 45.462 C 217.519 45.882,217.552 46.054,217.592 45.844 C 217.633 45.634,217.633 45.291,217.592 45.081 C 217.552 44.871,217.519 45.042,217.519 45.462 M396.986 47.668 C 396.986 47.994,397.021 48.128,397.063 47.964 C 397.106 47.801,397.106 47.534,397.063 47.371 C 397.021 47.207,396.986 47.341,396.986 47.668 M151.369 49.534 C 151.369 50.140,151.400 50.388,151.437 50.085 C 151.475 49.782,151.475 49.285,151.437 48.982 C 151.400 48.679,151.369 48.927,151.369 49.534 M219.223 49.534 C 219.223 50.140,219.254 50.388,219.292 50.085 C 219.329 49.782,219.329 49.285,219.292 48.982 C 219.254 48.679,219.223 48.927,219.223 49.534 M371.893 50.975 C 371.894 51.535,371.926 51.744,371.963 51.439 C 372.001 51.134,372.000 50.676,371.962 50.421 C 371.923 50.166,371.892 50.416,371.893 50.975 M255.688 50.846 C 256.134 50.881,256.821 50.880,257.215 50.845 C 257.608 50.809,257.243 50.781,256.404 50.781 C 255.564 50.782,255.242 50.811,255.688 50.846 M259.277 51.272 C 259.639 51.828,259.639 51.828,259.639 51.408 C 259.639 51.225,259.605 51.110,259.564 51.152 C 259.522 51.193,259.373 51.132,259.231 51.016 C 259.045 50.864,259.058 50.935,259.277 51.272 M14.601 51.222 C 14.026 51.316,13.728 51.491,13.329 51.966 C 13.015 52.339,12.657 52.587,12.429 52.587 C 11.774 52.587,10.740 53.098,10.550 53.517 C 10.449 53.738,10.101 54.045,9.776 54.199 C 9.370 54.392,9.105 54.684,8.924 55.136 C 8.779 55.497,8.501 55.878,8.306 55.983 C 7.935 56.182,7.294 57.473,7.294 58.022 C 7.294 58.198,7.112 58.516,6.890 58.729 C 5.441 60.123,5.439 66.799,6.888 68.571 C 7.095 68.825,7.318 69.271,7.382 69.562 C 7.466 69.947,7.650 70.154,8.056 70.324 C 8.421 70.476,8.677 70.738,8.796 71.078 C 8.916 71.424,9.172 71.679,9.558 71.840 C 9.937 71.999,10.177 72.235,10.248 72.521 C 10.326 72.832,10.576 73.053,11.104 73.280 C 11.515 73.456,11.931 73.749,12.029 73.932 C 12.265 74.373,13.046 74.628,14.552 74.755 C 15.653 74.849,15.826 74.912,16.125 75.331 C 16.530 75.901,17.139 76.105,18.878 76.253 C 20.019 76.351,20.235 76.421,20.466 76.774 C 20.711 77.149,21.178 77.345,22.443 77.606 C 23.303 77.783,23.058 79.242,22.137 79.427 C 21.064 79.642,20.584 79.890,20.382 80.334 C 20.073 81.011,18.433 80.946,18.069 80.243 C 17.745 79.616,17.454 79.460,16.327 79.308 C 15.542 79.202,15.423 79.134,15.336 78.737 C 15.089 77.615,14.867 77.149,14.502 76.983 C 14.249 76.867,14.072 76.600,14.002 76.229 C 13.793 75.114,13.547 75.062,8.573 75.078 C 4.543 75.091,4.082 75.123,3.308 75.438 C 2.011 75.965,1.622 77.170,2.434 78.146 C 2.770 78.551,2.849 78.885,2.939 80.279 C 3.056 82.110,3.348 82.891,3.976 83.049 C 4.318 83.135,4.402 83.291,4.501 84.027 C 4.650 85.130,4.813 85.436,5.458 85.829 C 5.742 86.002,6.063 86.322,6.171 86.541 C 6.278 86.759,6.632 87.070,6.957 87.232 C 7.283 87.393,7.669 87.671,7.815 87.849 C 8.141 88.245,9.231 88.805,9.937 88.939 C 10.225 88.994,10.700 89.262,10.993 89.536 C 11.865 90.351,12.491 90.416,19.286 90.405 C 26.621 90.394,26.967 90.357,27.746 89.507 C 28.167 89.047,28.448 88.889,28.846 88.889 C 29.628 88.889,30.474 88.426,30.703 87.874 C 30.819 87.594,31.079 87.348,31.321 87.287 C 31.558 87.227,31.902 86.907,32.112 86.551 L 32.485 85.920 32.570 87.759 C 32.651 89.520,32.675 89.614,33.136 90.011 L 33.617 90.424 47.423 90.378 L 61.229 90.331 61.615 89.945 C 61.965 89.595,62.006 89.379,62.044 87.655 C 62.082 85.935,62.121 85.726,62.450 85.478 C 63.278 84.853,63.708 82.597,63.189 81.594 C 62.774 80.792,62.307 80.748,54.081 80.747 C 49.912 80.747,46.472 80.689,46.438 80.619 C 46.404 80.549,46.447 79.217,46.535 77.659 L 46.693 74.826 53.669 74.775 C 61.144 74.721,61.123 74.723,61.705 73.835 C 62.222 73.047,62.147 66.145,61.615 65.612 L 61.229 65.225 54.618 65.175 C 50.982 65.147,48.007 65.085,48.007 65.036 C 48.007 64.987,48.264 64.705,48.579 64.408 C 49.124 63.894,49.158 63.792,49.276 62.299 L 49.400 60.729 57.312 60.727 C 66.203 60.724,65.962 60.756,66.251 59.564 C 66.349 59.161,66.553 58.761,66.706 58.675 C 67.485 58.239,68.113 54.105,67.669 52.341 C 67.327 50.984,68.199 51.056,52.685 51.103 C 36.950 51.151,38.478 50.956,38.366 52.939 C 38.306 53.988,38.249 54.161,37.912 54.315 C 37.163 54.656,36.820 56.723,36.814 60.941 C 36.812 61.982,36.741 62.765,36.649 62.765 C 36.556 62.765,36.528 62.422,36.584 61.952 C 36.727 60.739,36.364 59.243,35.797 58.711 C 35.538 58.468,35.201 57.881,35.046 57.406 C 34.777 56.577,34.244 55.810,33.937 55.810 C 33.857 55.810,33.706 55.567,33.602 55.270 C 33.359 54.571,32.939 54.114,32.540 54.114 C 32.366 54.114,32.137 53.924,32.031 53.692 C 31.793 53.169,31.301 52.837,30.532 52.681 C 29.502 52.473,29.367 52.408,29.259 52.067 C 28.983 51.200,28.560 51.147,21.713 51.121 C 18.215 51.108,15.014 51.153,14.601 51.222 M176.981 52.205 C 177.989 52.235,179.592 52.235,180.544 52.204 C 181.495 52.174,180.670 52.150,178.711 52.150 C 176.751 52.150,175.973 52.175,176.981 52.205 M395.632 54.198 C 395.634 54.572,395.669 54.704,395.709 54.493 C 395.750 54.282,395.748 53.977,395.706 53.815 C 395.664 53.653,395.630 53.825,395.632 54.198 M146.774 54.792 C 146.774 55.119,146.809 55.252,146.851 55.089 C 146.894 54.926,146.894 54.659,146.851 54.495 C 146.809 54.332,146.774 54.466,146.774 54.792 M241.603 56.234 C 241.605 56.607,241.640 56.740,241.681 56.529 C 241.721 56.318,241.720 56.013,241.677 55.850 C 241.635 55.688,241.602 55.861,241.603 56.234 M75.033 58.015 C 75.033 58.622,75.064 58.870,75.102 58.567 C 75.139 58.263,75.139 57.767,75.102 57.464 C 75.064 57.161,75.033 57.409,75.033 58.015 M290.971 59.372 C 290.971 59.792,291.004 59.964,291.044 59.754 C 291.085 59.544,291.085 59.201,291.044 58.991 C 291.004 58.781,290.971 58.953,290.971 59.372 M174.492 59.461 C 174.435 59.610,174.311 59.686,174.219 59.629 C 174.120 59.568,174.093 59.637,174.154 59.795 C 174.243 60.028,174.293 60.015,174.508 59.708 C 174.646 59.511,174.722 59.314,174.678 59.269 C 174.633 59.225,174.550 59.311,174.492 59.461 M21.937 61.298 C 22.359 61.742,22.663 61.890,23.330 61.977 C 24.084 62.075,24.207 62.150,24.380 62.607 C 24.502 62.930,24.766 63.198,25.080 63.316 C 25.419 63.444,25.632 63.676,25.732 64.024 C 25.959 64.816,26.416 64.943,29.077 64.951 C 32.082 64.961,32.859 64.819,33.417 64.157 C 33.773 63.735,34.013 63.633,34.888 63.533 L 35.934 63.414 35.782 64.065 C 35.699 64.423,35.579 66.150,35.515 67.903 C 35.452 69.656,35.331 71.133,35.246 71.186 C 34.806 71.458,33.920 71.050,33.675 70.462 C 33.514 70.078,33.246 69.795,32.930 69.676 C 32.643 69.568,32.339 69.270,32.206 68.969 C 32.073 68.668,31.744 68.346,31.427 68.206 C 31.125 68.073,30.837 67.835,30.786 67.677 C 30.611 67.123,30.055 66.819,28.900 66.642 C 28.208 66.536,27.597 66.336,27.394 66.149 C 26.782 65.586,25.751 65.280,24.133 65.184 C 22.614 65.093,22.533 65.069,22.303 64.624 C 22.016 64.067,21.285 63.783,20.145 63.783 C 18.782 63.783,17.589 62.137,18.742 61.848 C 18.973 61.790,19.280 61.514,19.425 61.236 C 19.828 60.455,21.167 60.488,21.937 61.298 M394.281 61.493 C 394.282 61.959,394.315 62.130,394.354 61.872 C 394.393 61.614,394.392 61.233,394.352 61.024 C 394.312 60.815,394.280 61.026,394.281 61.493 M173.761 63.613 C 173.761 64.220,173.792 64.468,173.829 64.165 C 173.867 63.861,173.867 63.365,173.829 63.062 C 173.792 62.759,173.761 63.007,173.761 63.613 M265.858 64.631 C 265.858 64.958,265.893 65.091,265.935 64.928 C 265.978 64.765,265.978 64.497,265.935 64.334 C 265.893 64.171,265.858 64.304,265.858 64.631 M364.597 67.176 C 364.597 67.689,364.629 67.899,364.668 67.642 C 364.707 67.385,364.707 66.966,364.668 66.709 C 364.629 66.453,364.597 66.662,364.597 67.176 M340.868 69.890 C 340.868 71.709,340.893 72.453,340.924 71.544 C 340.954 70.634,340.954 69.145,340.924 68.236 C 340.893 67.326,340.868 68.070,340.868 69.890 M369.009 67.939 C 369.010 68.499,369.042 68.707,369.080 68.402 C 369.117 68.097,369.117 67.639,369.078 67.385 C 369.039 67.130,369.008 67.379,369.009 67.939 M313.695 68.193 C 313.695 68.520,313.730 68.654,313.773 68.490 C 313.815 68.327,313.815 68.060,313.773 67.897 C 313.730 67.733,313.695 67.867,313.695 68.193 M102.332 69.508 C 103.709 69.536,105.961 69.536,107.337 69.508 C 108.713 69.479,107.587 69.456,104.835 69.456 C 102.082 69.456,100.956 69.479,102.332 69.508 M172.990 69.505 C 173.389 69.541,174.000 69.541,174.347 69.504 C 174.695 69.468,174.368 69.438,173.622 69.439 C 172.875 69.440,172.591 69.469,172.990 69.505 M238.723 72.943 C 238.723 73.363,238.756 73.535,238.797 73.325 C 238.837 73.115,238.837 72.771,238.797 72.561 C 238.756 72.352,238.723 72.523,238.723 72.943 M206.150 74.385 C 206.152 74.758,206.186 74.891,206.227 74.680 C 206.267 74.469,206.266 74.164,206.223 74.001 C 206.181 73.839,206.148 74.012,206.150 74.385 M147.122 74.724 C 147.124 75.191,147.157 75.362,147.196 75.104 C 147.235 74.846,147.233 74.464,147.193 74.256 C 147.153 74.047,147.121 74.258,147.122 74.724 M214.976 74.724 C 214.978 75.191,215.011 75.362,215.050 75.104 C 215.089 74.846,215.088 74.464,215.047 74.256 C 215.007 74.047,214.975 74.258,214.976 74.724 M367.646 76.166 C 367.646 76.586,367.679 76.758,367.719 76.548 C 367.760 76.338,367.760 75.994,367.719 75.785 C 367.679 75.575,367.646 75.746,367.646 76.166 M391.395 79.389 C 391.395 79.809,391.428 79.981,391.468 79.771 C 391.509 79.561,391.509 79.218,391.468 79.008 C 391.428 78.798,391.395 78.969,391.395 79.389 M364.599 79.983 C 364.600 80.543,364.631 80.751,364.669 80.446 C 364.707 80.142,364.706 79.684,364.667 79.429 C 364.629 79.174,364.598 79.423,364.599 79.983 M310.811 79.898 C 310.811 80.225,310.846 80.358,310.889 80.195 C 310.931 80.032,310.931 79.765,310.889 79.601 C 310.846 79.438,310.811 79.572,310.811 79.898 M204.798 80.831 C 204.800 81.298,204.833 81.468,204.872 81.211 C 204.911 80.953,204.909 80.571,204.869 80.362 C 204.829 80.154,204.797 80.365,204.798 80.831 M285.720 82.273 C 285.720 82.880,285.751 83.128,285.789 82.824 C 285.826 82.521,285.826 82.025,285.789 81.722 C 285.751 81.419,285.720 81.667,285.720 82.273 M70.777 82.952 C 70.777 83.278,70.812 83.412,70.855 83.249 C 70.898 83.085,70.898 82.818,70.855 82.655 C 70.812 82.492,70.777 82.625,70.777 82.952 M390.034 86.429 C 390.036 86.802,390.071 86.935,390.111 86.724 C 390.152 86.513,390.151 86.208,390.108 86.046 C 390.066 85.883,390.032 86.056,390.034 86.429 M364.416 86.514 C 364.416 86.841,364.451 86.974,364.494 86.811 C 364.536 86.648,364.536 86.380,364.494 86.217 C 364.451 86.054,364.416 86.187,364.416 86.514 M339.313 87.277 C 339.315 87.651,339.350 87.783,339.391 87.572 C 339.431 87.361,339.430 87.056,339.387 86.894 C 339.345 86.732,339.311 86.904,339.313 87.277 M203.441 89.313 C 203.442 89.779,203.475 89.950,203.514 89.692 C 203.553 89.434,203.552 89.053,203.512 88.844 C 203.472 88.636,203.440 88.846,203.441 89.313 M309.491 96.607 C 309.491 99.779,309.514 101.053,309.542 99.438 C 309.570 97.822,309.570 95.227,309.542 93.670 C 309.514 92.113,309.491 93.435,309.491 96.607 M364.755 92.960 C 364.755 93.287,364.790 93.420,364.833 93.257 C 364.875 93.094,364.875 92.827,364.833 92.663 C 364.790 92.500,364.755 92.634,364.755 92.960 M337.953 93.469 C 337.953 93.796,337.988 93.929,338.030 93.766 C 338.073 93.603,338.073 93.335,338.030 93.172 C 337.988 93.009,337.953 93.142,337.953 93.469 M168.999 93.256 C 169.629 93.288,170.659 93.288,171.289 93.256 C 171.919 93.223,171.404 93.196,170.144 93.196 C 168.885 93.196,168.369 93.223,168.999 93.256 M139.826 94.996 C 139.826 95.416,139.859 95.587,139.899 95.377 C 139.940 95.168,139.940 94.824,139.899 94.614 C 139.859 94.404,139.826 94.576,139.826 94.996 M103.181 94.614 C 104.277 94.643,106.071 94.643,107.167 94.614 C 108.263 94.584,107.366 94.560,105.174 94.560 C 102.981 94.560,102.084 94.584,103.181 94.614 M195.894 94.613 C 196.669 94.645,197.890 94.645,198.609 94.613 C 199.327 94.581,198.694 94.555,197.201 94.556 C 195.708 94.556,195.120 94.582,195.894 94.613 M247.537 97.880 C 247.537 98.206,247.572 98.340,247.615 98.176 C 247.657 98.013,247.657 97.746,247.615 97.583 C 247.572 97.419,247.537 97.553,247.537 97.880 M18.364 97.898 C 17.348 98.194,17.225 98.611,17.162 101.964 L 17.106 104.962 16.687 105.153 C 15.957 105.486,15.805 106.204,15.675 109.937 C 15.565 113.103,15.526 113.421,15.223 113.635 C 14.595 114.080,14.425 114.885,14.309 117.961 C 14.214 120.469,14.155 120.935,13.926 120.996 C 13.482 121.114,13.034 122.608,12.937 124.297 L 12.846 125.863 12.233 125.961 C 10.989 126.159,10.848 126.227,10.474 126.804 L 10.093 127.392 7.125 127.396 C 3.080 127.403,2.913 127.522,2.893 130.420 C 2.884 131.742,2.853 131.864,2.399 132.318 C 1.683 133.034,1.433 135.215,1.952 136.219 C 2.369 137.025,2.883 137.075,10.298 137.025 C 17.601 136.977,17.778 136.955,18.065 136.052 C 18.203 135.618,18.762 135.603,18.874 136.030 C 19.101 136.899,19.563 136.977,24.720 137.024 C 30.842 137.079,31.036 137.007,31.043 134.690 C 31.045 134.213,31.142 134.042,31.541 133.815 C 32.064 133.517,32.398 132.695,32.399 131.699 C 32.400 131.320,32.493 131.143,32.722 131.083 C 33.170 130.966,33.575 130.291,33.725 129.411 L 33.851 128.668 38.192 128.623 L 42.532 128.578 42.655 130.572 C 42.787 132.717,43.032 133.578,43.558 133.745 C 43.835 133.833,43.905 134.051,43.976 135.050 C 44.120 137.064,43.847 136.972,49.880 137.024 C 55.824 137.075,56.004 137.042,56.329 135.848 C 56.761 134.261,56.293 131.203,55.543 130.711 C 55.152 130.455,55.131 130.354,55.129 128.707 C 55.122 124.581,54.774 122.508,54.032 122.170 C 53.656 121.998,53.646 121.924,53.562 118.546 C 53.472 114.907,53.340 114.194,52.681 113.762 C 52.300 113.513,52.289 113.423,52.205 110.061 C 52.115 106.432,51.983 105.712,51.329 105.284 C 50.961 105.042,50.940 104.906,50.842 102.059 C 50.682 97.410,51.195 97.699,43.142 97.713 C 35.772 97.726,35.828 97.709,35.537 99.958 C 35.470 100.475,35.350 100.763,35.201 100.763 C 34.777 100.763,34.291 101.613,34.172 102.559 C 34.074 103.344,33.983 103.527,33.591 103.730 C 33.080 103.994,32.821 104.533,32.664 105.658 C 32.594 106.153,32.399 106.558,32.073 106.885 C 31.722 107.236,31.552 107.611,31.468 108.224 C 31.376 108.894,31.241 109.161,30.839 109.476 C 30.333 109.872,29.856 111.137,29.856 112.081 C 29.856 112.310,29.753 112.468,29.604 112.468 C 29.299 112.468,28.499 113.989,28.499 114.569 C 28.499 114.803,28.325 115.120,28.102 115.295 C 27.739 115.580,27.404 116.314,27.031 117.642 C 26.925 118.018,26.866 117.620,26.803 116.115 C 26.686 113.319,26.752 112.677,27.174 112.543 C 27.943 112.299,28.178 110.499,28.161 104.966 C 28.160 104.439,28.241 104.292,28.654 104.079 C 29.924 103.422,30.005 98.477,28.754 97.954 C 28.106 97.683,19.265 97.635,18.364 97.898 M167.978 98.558 C 167.978 98.885,168.013 99.018,168.056 98.855 C 168.099 98.692,168.099 98.425,168.056 98.261 C 168.013 98.098,167.978 98.232,167.978 98.558 M361.702 99.406 C 361.702 99.733,361.737 99.866,361.779 99.703 C 361.822 99.540,361.822 99.273,361.779 99.109 C 361.737 98.946,361.702 99.080,361.702 99.406 M234.479 99.661 C 234.481 100.034,234.515 100.167,234.556 99.956 C 234.597 99.745,234.595 99.439,234.553 99.277 C 234.510 99.115,234.477 99.288,234.479 99.661 M142.876 100.000 C 142.878 100.373,142.912 100.506,142.953 100.295 C 142.993 100.084,142.992 99.779,142.949 99.616 C 142.907 99.454,142.874 99.627,142.876 100.000 M210.730 100.000 C 210.732 100.373,210.766 100.506,210.807 100.295 C 210.848 100.084,210.846 99.779,210.804 99.616 C 210.761 99.454,210.728 99.627,210.730 100.000 M363.402 101.357 C 363.403 101.730,363.438 101.863,363.479 101.652 C 363.519 101.441,363.518 101.136,363.475 100.973 C 363.433 100.811,363.400 100.984,363.402 101.357 M248.898 103.732 C 248.900 104.105,248.934 104.238,248.975 104.027 C 249.016 103.816,249.014 103.511,248.972 103.348 C 248.929 103.186,248.896 103.359,248.898 103.732 M387.160 104.580 C 387.161 105.140,387.193 105.349,387.231 105.044 C 387.268 104.739,387.268 104.281,387.229 104.026 C 387.190 103.771,387.159 104.020,387.160 104.580 M141.515 106.531 C 141.515 106.858,141.550 106.991,141.593 106.828 C 141.635 106.665,141.635 106.397,141.593 106.234 C 141.550 106.071,141.515 106.204,141.515 106.531 M209.369 106.531 C 209.369 106.858,209.404 106.991,209.447 106.828 C 209.490 106.665,209.490 106.397,209.447 106.234 C 209.404 106.071,209.369 106.204,209.369 106.531 M362.041 107.888 C 362.041 108.215,362.076 108.348,362.119 108.185 C 362.161 108.022,362.161 107.754,362.119 107.591 C 362.076 107.428,362.041 107.561,362.041 107.888 M66.536 108.058 C 66.536 108.384,66.571 108.518,66.614 108.355 C 66.657 108.191,66.657 107.924,66.614 107.761 C 66.571 107.598,66.536 107.731,66.536 108.058 M233.122 108.142 C 233.124 108.516,233.158 108.648,233.199 108.437 C 233.239 108.226,233.238 107.921,233.195 107.759 C 233.153 107.597,233.120 107.769,233.122 108.142 M113.186 109.924 C 113.186 110.250,113.221 110.384,113.264 110.221 C 113.306 110.057,113.306 109.790,113.264 109.627 C 113.221 109.464,113.186 109.597,113.186 109.924 M287.062 110.263 C 287.062 110.589,287.097 110.723,287.140 110.560 C 287.183 110.397,287.183 110.129,287.140 109.966 C 287.097 109.803,287.062 109.936,287.062 110.263 M250.265 110.857 C 250.266 111.416,250.297 111.625,250.335 111.320 C 250.373 111.015,250.372 110.557,250.333 110.302 C 250.295 110.047,250.264 110.297,250.265 110.857 M385.790 111.620 C 385.790 111.947,385.825 112.080,385.868 111.917 C 385.910 111.754,385.910 111.486,385.868 111.323 C 385.825 111.160,385.790 111.293,385.790 111.620 M165.271 113.316 C 165.271 113.736,165.304 113.908,165.344 113.698 C 165.385 113.488,165.385 113.145,165.344 112.935 C 165.304 112.725,165.271 112.897,165.271 113.316 M41.052 116.455 L 41.052 118.914 39.610 118.914 C 38.044 118.914,37.746 118.690,38.583 118.141 C 39.023 117.853,39.274 117.259,39.458 116.067 C 39.525 115.633,39.691 115.275,39.869 115.180 C 40.033 115.092,40.248 114.789,40.347 114.507 C 40.803 113.198,41.052 113.885,41.052 116.455 M188.836 114.800 C 190.021 114.829,192.005 114.829,193.247 114.800 C 194.489 114.771,193.520 114.747,191.094 114.747 C 188.668 114.747,187.652 114.771,188.836 114.800 M135.591 117.303 C 135.592 117.863,135.624 118.071,135.662 117.766 C 135.699 117.461,135.699 117.003,135.660 116.748 C 135.621 116.494,135.590 116.743,135.591 117.303 M111.829 117.048 C 111.829 117.375,111.864 117.508,111.907 117.345 C 111.949 117.182,111.949 116.915,111.907 116.751 C 111.864 116.588,111.829 116.722,111.829 117.048 M360.514 118.066 C 360.514 118.393,360.549 118.526,360.592 118.363 C 360.635 118.200,360.635 117.933,360.592 117.769 C 360.549 117.606,360.514 117.740,360.514 118.066 M275.534 118.575 C 275.534 118.995,275.567 119.167,275.607 118.957 C 275.648 118.747,275.648 118.403,275.607 118.193 C 275.567 117.983,275.534 118.155,275.534 118.575 M63.822 122.816 C 63.822 123.142,63.857 123.276,63.900 123.113 C 63.942 122.950,63.942 122.682,63.900 122.519 C 63.857 122.356,63.822 122.489,63.822 122.816 M384.263 123.325 C 384.263 123.651,384.298 123.785,384.341 123.622 C 384.384 123.458,384.384 123.191,384.341 123.028 C 384.298 122.865,384.263 122.998,384.263 123.325 M204.796 124.682 C 204.796 125.102,204.829 125.274,204.870 125.064 C 204.910 124.854,204.910 124.510,204.870 124.300 C 204.829 124.090,204.796 124.262,204.796 124.682 M230.238 124.936 C 230.240 125.310,230.274 125.442,230.315 125.231 C 230.356 125.020,230.354 124.715,230.312 124.553 C 230.269 124.391,230.236 124.563,230.238 124.936 M138.635 125.106 C 138.637 125.479,138.671 125.612,138.712 125.401 C 138.753 125.190,138.751 124.885,138.709 124.722 C 138.666 124.560,138.633 124.733,138.635 125.106 M206.489 125.106 C 206.491 125.479,206.526 125.612,206.566 125.401 C 206.607 125.190,206.605 124.885,206.563 124.722 C 206.520 124.560,206.487 124.733,206.489 125.106 M276.899 125.869 C 276.899 126.476,276.930 126.724,276.967 126.421 C 277.005 126.117,277.005 125.621,276.967 125.318 C 276.930 125.015,276.899 125.263,276.899 125.869 M359.157 126.548 C 359.157 126.874,359.192 127.008,359.235 126.845 C 359.277 126.682,359.277 126.414,359.235 126.251 C 359.192 126.088,359.157 126.221,359.157 126.548 M253.139 127.651 C 253.141 128.024,253.175 128.156,253.216 127.945 C 253.256 127.734,253.255 127.429,253.212 127.267 C 253.170 127.105,253.137 127.277,253.139 127.651 M382.910 129.347 C 382.911 129.720,382.946 129.853,382.987 129.642 C 383.027 129.431,383.026 129.125,382.983 128.963 C 382.941 128.801,382.908 128.974,382.910 129.347 M137.274 131.298 C 137.274 131.624,137.309 131.758,137.352 131.595 C 137.395 131.431,137.395 131.164,137.352 131.001 C 137.309 130.838,137.274 130.971,137.274 131.298 M205.128 131.298 C 205.128 131.624,205.163 131.758,205.206 131.595 C 205.249 131.431,205.249 131.164,205.206 131.001 C 205.163 130.838,205.128 130.971,205.128 131.298 M203.445 132.909 C 203.446 133.469,203.478 133.678,203.516 133.373 C 203.553 133.068,203.553 132.610,203.514 132.355 C 203.475 132.100,203.444 132.349,203.445 132.909 M357.800 132.655 C 357.800 132.981,357.835 133.115,357.878 132.952 C 357.920 132.788,357.920 132.521,357.878 132.358 C 357.835 132.195,357.800 132.328,357.800 132.655 M228.881 133.418 C 228.883 133.791,228.917 133.924,228.958 133.713 C 228.999 133.502,228.997 133.197,228.955 133.034 C 228.912 132.872,228.879 133.045,228.881 133.418 M254.505 134.945 C 254.506 135.505,254.538 135.713,254.576 135.408 C 254.614 135.103,254.613 134.645,254.574 134.391 C 254.535 134.136,254.505 134.385,254.505 134.945 M108.960 135.878 C 108.960 136.484,108.991 136.732,109.029 136.429 C 109.066 136.126,109.066 135.630,109.029 135.327 C 108.991 135.023,108.960 135.271,108.960 135.878 M381.553 136.641 C 381.554 137.014,381.589 137.147,381.630 136.936 C 381.670 136.725,381.669 136.420,381.626 136.258 C 381.584 136.095,381.551 136.268,381.553 136.641 M141.942 138.379 C 142.619 138.411,143.726 138.411,144.402 138.379 C 145.078 138.347,144.525 138.320,143.172 138.320 C 141.819 138.320,141.266 138.347,141.942 138.379 M209.796 138.379 C 210.473 138.411,211.580 138.411,212.256 138.379 C 212.933 138.347,212.379 138.320,211.026 138.320 C 209.673 138.320,209.120 138.347,209.796 138.379 M114.461 139.906 C 115.698 139.935,117.721 139.935,118.957 139.906 C 120.193 139.877,119.182 139.854,116.709 139.854 C 114.237 139.854,113.225 139.877,114.461 139.906 M189.186 139.906 C 190.469 139.935,192.568 139.935,193.851 139.906 C 195.134 139.877,194.084 139.854,191.518 139.854 C 188.953 139.854,187.903 139.877,189.186 139.906 M259.406 139.906 C 260.218 139.937,261.592 139.937,262.460 139.906 C 263.327 139.875,262.663 139.850,260.984 139.850 C 259.304 139.849,258.595 139.875,259.406 139.906 M329.474 139.896 C 329.637 139.939,329.905 139.939,330.068 139.896 C 330.231 139.854,330.098 139.819,329.771 139.819 C 329.444 139.819,329.311 139.854,329.474 139.896 M369.094 139.906 C 370.429 139.935,372.567 139.935,373.844 139.906 C 375.121 139.877,374.029 139.854,371.416 139.854 C 368.804 139.854,367.759 139.878,369.094 139.906 M319.296 141.263 C 320.206 141.294,321.694 141.294,322.604 141.263 C 323.514 141.233,322.769 141.208,320.950 141.208 C 319.131 141.208,318.386 141.233,319.296 141.263 M84.694 142.494 C 84.694 142.913,84.727 143.085,84.768 142.875 C 84.808 142.665,84.808 142.322,84.768 142.112 C 84.727 141.902,84.694 142.074,84.694 142.494 M83.161 153.011 C 83.161 153.338,83.196 153.471,83.238 153.308 C 83.281 153.145,83.281 152.877,83.238 152.714 C 83.196 152.551,83.161 152.684,83.161 153.011 M58.061 160.984 C 58.061 161.404,58.095 161.575,58.135 161.366 C 58.175 161.156,58.175 160.812,58.135 160.602 C 58.095 160.392,58.061 160.564,58.061 160.984 M81.804 160.814 C 81.804 161.141,81.838 161.274,81.881 161.111 C 81.924 160.948,81.924 160.681,81.881 160.517 C 81.838 160.354,81.804 160.488,81.804 160.814 M80.446 167.260 C 80.446 167.587,80.481 167.721,80.524 167.557 C 80.567 167.394,80.567 167.127,80.524 166.964 C 80.481 166.800,80.446 166.934,80.446 167.260 " stroke="none" fill="#5c5c5c" fill-rule="evenodd"></path></g></svg>